<svg width="50" height="50" viewBox="0 0 50 50" fill="none" xmlns="http://www.w3.org/2000/svg">
<path d="M25 4.6875C36.2183 4.6875 45.3125 13.7817 45.3125 25C45.3125 36.2183 36.2183 45.3125 25 45.3125C13.7817 45.3125 4.6875 36.2183 4.6875 25C4.6875 13.7817 13.7817 4.6875 25 4.6875ZM20.4824 16.2979C18.9204 15.4302 17.0004 16.56 17 18.3467V31.3164C17 33.1035 18.9203 34.2331 20.4824 33.3652L32.1543 26.8809C32.6848 26.5861 33.0385 26.1356 33.2188 25.6338C33.6147 25.354 33.6521 24.7906 33.3291 24.458C33.2231 23.7893 32.8324 23.1599 32.1543 22.7832L20.4824 16.2979ZM20.3125 19.7783V29.8838L20.125 29.9883V19.6748L20.3125 19.7783Z" fill="white"/>
</svg>
